<?xml version="1.0" encoding="UTF-8" standalone="no"?>
<!-- Created with Inkscape (http://www.inkscape.org/) -->

<svg
   width="106.6312mm"
   height="106.67522mm"
   viewBox="0 0 106.6312 106.67522"
   version="1.1"
   id="svg1"
   xml:space="preserve"
   xmlns:inkscape="http://www.inkscape.org/namespaces/inkscape"
   xmlns:sodipodi="http://sodipodi.sourceforge.net/DTD/sodipodi-0.dtd"
   xmlns="http://www.w3.org/2000/svg"
   xmlns:svg="http://www.w3.org/2000/svg"><sodipodi:namedview
     id="namedview1"
     pagecolor="#505050"
     bordercolor="#eeeeee"
     borderopacity="1"
     inkscape:showpageshadow="0"
     inkscape:pageopacity="0"
     inkscape:pagecheckerboard="0"
     inkscape:deskcolor="#505050"
     inkscape:document-units="mm"><inkscape:page
       x="0"
       y="0"
       width="106.6312"
       height="106.67522"
       id="page2"
       margin="0"
       bleed="0" /></sodipodi:namedview><defs
     id="defs1" /><g
     inkscape:label="Layer 1"
     inkscape:groupmode="layer"
     id="layer1"
     transform="translate(-52.480432,-101.24768)"><path
       style="fill:#000000"
       d="m 63.769205,207.73662 c -3.095,-0.52816 -6.62583,-2.66668 -8.42586,-5.1033 -1.49906,-2.0292 -2.06072,-3.26585 -2.55462,-5.62467 -1.6731,-7.99067 3.6308,-15.27159 11.85672,-16.27627 4.26929,-0.52144 5.56187,-0.81304 7.14383,-1.61161 4.78673,-2.41633 7.63522,-7.81766 6.88158,-13.04891 -0.50843,-3.52922 -2.46028,-6.79241 -5.12857,-8.57424 -2.25854,-1.50819 -4.04094,-2.08922 -7.44465,-2.42682 -4.90712,-0.48672 -8.46828,-2.25968 -10.75429,-5.35415 -1.49906,-2.0292 -2.06072,-3.26585 -2.55462,-5.62466 -1.6731,-7.99068 3.6308,-15.27159 11.85672,-16.27628 5.92028,-0.72308 7.65057,-1.37409 10.25514,-3.85843 2.53271,-2.41579 3.67443,-5.20645 4.06585,-9.93795 0.48066,-5.8103 3.78286,-10.1367 9.19384,-12.04537 3.28946,-1.16033 7.62787,-0.91065 10.566159,0.60808 1.691326,0.87421 3.663706,2.50895 4.694336,3.89072 1.96452,2.63384 2.5159,4.22201 2.94464,8.48152 0.4225,4.19753 1.42368,6.48785 3.96202,9.06361 2.00717,2.03676 5.72693,3.53726 8.79281,3.5469 3.12223,0.01 6.27618,-1.29843 8.69701,-3.60751 2.53271,-2.41579 3.67443,-5.20645 4.06585,-9.93795 0.48066,-5.8103 3.78286,-10.1367 9.19384,-12.04537 3.28946,-1.16033 7.62787,-0.91065 10.56615,0.60808 3.38343,1.74882 5.92465,4.78279 7.05085,8.418 0.56883,1.83608 0.55405,5.93277 -0.0283,7.83742 -1.73989,5.69081 -7.32111,9.76168 -13.41535,9.78498 -4.22582,0.0162 -8.99934,2.99555 -10.94217,6.82953 -3.11514,6.14743 -0.81529,13.81376 5.0796,16.93238 1.95718,1.03543 3.05598,1.32622 6.27,1.65932 4.04002,0.4187 5.60335,0.97476 8.2631,2.93912 2.15376,1.59067 3.90664,4.13708 4.7731,6.93389 0.56883,1.83609 0.55405,5.93279 -0.0283,7.83744 -1.73989,5.69081 -7.32111,9.76168 -13.41535,9.78499 -3.02955,0.0116 -6.5655,1.59773 -8.81184,3.95279 -2.36762,2.4822 -3.34914,5.00935 -3.72901,9.60119 -0.53536,6.47153 -4.71085,11.20705 -11.06533,12.54944 -5.90476,1.24739 -12.08862,-1.84685 -14.96711,-7.48914 -0.561,-1.09967 -1.12089,-3.77563 -1.58774,-7.58858 -0.51365,-4.19517 -3.00153,-7.71835 -6.763036,-9.57739 -4.943929,-2.44342 -10.491719,-1.62463 -14.427339,2.12932 -2.57416,2.45533 -3.71278,5.22175 -4.1061,9.97635 -0.30844,3.72842 -1.56269,6.44477 -4.14932,8.98624 -3.01154,2.95896 -7.63026,4.38153 -11.87428,3.65729 z m 57.996865,-27.54897 c 6.31256,-1.34044 10.74018,-7.73858 9.8123,-14.17928 -0.5988,-4.1565 -3.10813,-7.65773 -6.7938,-9.47928 -7.4848,-3.69919 -16.12978,0.3761 -18.04268,8.50542 -2.08727,8.8703 6.03472,17.062 15.02418,15.15314 z M 95.307745,153.72931 c 6.312555,-1.34044 10.740175,-7.73857 9.812295,-14.17927 -0.59881,-4.15651 -3.10813,-7.65773 -6.793796,-9.47929 -7.484799,-3.69918 -16.129779,0.37611 -18.042689,8.50542 -2.08726,8.87031 6.03472,17.06201 15.02419,15.15314 z"
       id="path1" /></g></svg>
