<?xml version="1.0" encoding="UTF-8" standalone="no"?>
<!-- Created with Inkscape (http://www.inkscape.org/) -->

<svg
   version="1.1"
   id="svg1"
   width="403.01556"
   height="403.18198"
   viewBox="0 0 403.01556 403.18198"
   sodipodi:docname="scuFAVICON.png"
   inkscape:export-filename="scuFAVICON.svg"
   inkscape:export-xdpi="96"
   inkscape:export-ydpi="96"
   xmlns:inkscape="http://www.inkscape.org/namespaces/inkscape"
   xmlns:sodipodi="http://sodipodi.sourceforge.net/DTD/sodipodi-0.dtd"
   xmlns="http://www.w3.org/2000/svg"
   xmlns:svg="http://www.w3.org/2000/svg">
  <defs
     id="defs1" />
  <sodipodi:namedview
     id="namedview1"
     pagecolor="#505050"
     bordercolor="#eeeeee"
     borderopacity="1"
     inkscape:showpageshadow="0"
     inkscape:pageopacity="0"
     inkscape:pagecheckerboard="0"
     inkscape:deskcolor="#505050"
     showgrid="false">
    <inkscape:page
       x="0"
       y="0"
       width="403.01556"
       height="403.18198"
       id="page2"
       margin="0"
       bleed="0" />
  </sodipodi:namedview>
  <g
     inkscape:groupmode="layer"
     inkscape:label="Image"
     id="g1"
     transform="translate(-1227.3338,-726.51891)">
    <path
       style="fill:#000000"
       d="m 1270,1128.9968 c -11.6976,-1.9962 -25.0425,-10.0788 -31.8458,-19.288 -5.6657,-7.6694 -7.7885,-12.3434 -9.6552,-21.2586 -6.3235,-30.201 13.7227,-57.7194 44.8128,-61.5166 16.1359,-1.9708 21.0212,-3.0729 27.0003,-6.0911 18.0916,-9.1326 28.8575,-29.54709 26.0091,-49.31875 -1.9216,-13.33878 -9.2987,-25.67213 -19.3836,-32.40657 -8.5362,-5.70027 -15.2728,-7.89628 -28.1372,-9.17226 -18.5466,-1.83956 -32.0061,-8.54052 -40.6462,-20.23615 -5.6657,-7.66941 -7.7885,-12.34337 -9.6552,-21.25857 -6.3235,-30.20097 13.7227,-57.71939 44.8128,-61.51663 22.3758,-2.73291 28.9155,-5.19343 38.7596,-14.58306 9.5724,-9.13056 13.8876,-19.67794 15.367,-37.56077 1.8166,-21.96023 14.2974,-38.31197 34.7483,-45.52584 12.4327,-4.38548 28.8298,-3.44182 39.9351,2.29827 6.3924,3.30411 13.8471,9.4826 17.7424,14.70504 7.425,9.95468 9.5089,15.95719 11.1294,32.05619 1.5968,15.86466 5.3808,24.52102 14.9745,34.2562 7.5862,7.69799 21.6451,13.36918 33.2327,13.40562 11.8006,0.0371 23.721,-4.90749 32.8706,-13.63471 9.5724,-9.13056 13.8876,-19.67794 15.367,-37.56077 1.8166,-21.96023 14.2974,-38.31197 34.7483,-45.52584 12.4327,-4.38548 28.8298,-3.44182 39.9351,2.29827 12.7877,6.6097 22.3924,18.07665 26.6489,31.81601 2.1499,6.93956 2.094,22.42312 -0.1069,29.62182 -6.576,21.50859 -27.6703,36.89454 -50.7037,36.98264 -15.9716,0.0611 -34.0133,11.32173 -41.3562,25.81237 -11.7738,23.23437 -3.0814,52.20949 19.1985,63.99642 7.3972,3.91343 11.5501,5.01247 23.6976,6.27142 15.2694,1.58249 21.178,3.68416 31.2306,11.1085 8.1402,6.01198 14.7653,15.63619 18.0401,26.20683 2.1499,6.93956 2.094,22.42312 -0.1069,29.62182 -6.576,21.5086 -27.6703,36.8945 -50.7037,36.9826 -11.4503,0.044 -24.8145,6.0387 -33.3046,14.9397 -8.9485,9.3816 -12.6582,18.933 -14.0939,36.288 -2.0234,24.4593 -17.8048,42.3573 -41.8217,47.4309 -22.3172,4.7146 -45.6893,-6.9802 -56.5686,-28.3054 -2.1203,-4.1562 -4.2364,-14.2701 -6.0009,-28.6812 -1.9414,-15.8558 -11.3444,-29.1717 -25.5611,-36.198 -18.6857,-9.235 -39.6538,-6.1404 -54.5285,8.0478 -9.7292,9.28 -14.0326,19.7357 -15.5192,37.7059 -1.1657,14.0916 -5.9062,24.3582 -15.6824,33.9637 -11.3822,11.1835 -28.8388,16.5601 -44.8792,13.8228 z m 219.2008,-104.1221 c 23.8585,-5.0662 40.5928,-29.2481 37.0858,-53.59093 -2.2632,-15.70961 -11.7472,-28.94258 -25.6773,-35.8272 -28.289,-13.98119 -60.963,1.42149 -68.1928,32.14646 -7.8889,33.52557 22.8084,64.48627 56.7843,57.27167 z m -100,-99.99996 c 23.8585,-5.06623 40.5928,-29.24814 37.0858,-53.59097 -2.2632,-15.70961 -11.7472,-28.94258 -25.6773,-35.8272 -28.289,-13.98119 -60.963,1.42149 -68.1928,32.14646 -7.8889,33.52555 22.8084,64.48632 56.7843,57.27171 z"
       id="path1" />
    <circle
       style="fill:#ffffff;stroke:#212825;stroke-width:0;stroke-linejoin:bevel"
       id="path2-1"
       cx="1278.9821"
       cy="1077.5736"
       r="48.213657" />
    <circle
       style="fill:#ffffff;stroke:#212825;stroke-width:0;stroke-linejoin:bevel"
       id="path2-3"
       cx="1379.2771"
       cy="977.94745"
       r="48.213657" />
    <circle
       style="fill:#ffffff;stroke:#212825;stroke-width:0;stroke-linejoin:bevel"
       id="path2"
       cx="1279.1807"
       cy="877.57605"
       r="48.213657" />
    <path
       style="fill:#ffffff;stroke:#212825;stroke-width:0;stroke-linejoin:bevel"
       d="m 1274.8989,1029.4938 c 58.6635,-2.162 56.2132,-51.60083 56.2132,-51.60083 l 48.4299,48.14163 c -36.4736,4.8101 -47.6503,17.8971 -52.4657,54.0512 z"
       id="path3"
       sodipodi:nodetypes="ccccc" />
    <path
       style="fill:#ffffff;stroke:#212825;stroke-width:0;stroke-linejoin:bevel"
       d="m 1327.0108,873.19323 c 2.7351,58.63955 53.589,56.5711 53.589,56.5711 l -49.1075,48.03324 c -5.1663,-36.42492 -18.3618,-47.47322 -54.5613,-51.9351 z"
       id="path3-3"
       sodipodi:nodetypes="ccccc" />
    <circle
       style="fill:#ffffff;stroke:#212825;stroke-width:0;stroke-linejoin:bevel"
       id="path2-3-6"
       cx="1378.8553"
       cy="777.88776"
       r="48.213657" />
    <path
       style="fill:#ffffff;stroke:#212825;stroke-width:0;stroke-linejoin:bevel"
       d="m 1274.4772,829.43416 c 58.6635,-2.162 56.2132,-51.60083 56.2132,-51.60083 l 48.4299,48.14163 c -36.4736,4.8101 -47.6503,17.8971 -52.4657,54.0512 z"
       id="path3-1"
       sodipodi:nodetypes="ccccc" />
    <circle
       style="fill:#ffffff;stroke:#212825;stroke-width:0;stroke-linejoin:bevel"
       id="path2-3-0"
       cx="1579.0295"
       cy="978.12311"
       r="48.213657" />
    <circle
       style="fill:#ffffff;stroke:#212825;stroke-width:0;stroke-linejoin:bevel"
       id="path2-2"
       cx="1478.9331"
       cy="877.75171"
       r="48.213657" />
    <path
       style="fill:#ffffff;stroke:#212825;stroke-width:0;stroke-linejoin:bevel"
       d="m 1526.7632,873.36892 c 2.7351,58.63955 53.589,56.5711 53.589,56.5711 l -49.1075,48.03324 c -5.1663,-36.42492 -18.3618,-47.47322 -54.5613,-51.9351 z"
       id="path3-3-3"
       sodipodi:nodetypes="ccccc" />
    <circle
       style="fill:#ffffff;stroke:#212825;stroke-width:0;stroke-linejoin:bevel"
       id="path2-3-6-7"
       cx="1578.6078"
       cy="778.06342"
       r="48.213657" />
    <path
       style="fill:#ffffff;stroke:#212825;stroke-width:0;stroke-linejoin:bevel"
       d="m 1474.2296,829.60985 c 58.6635,-2.162 56.2132,-51.60083 56.2132,-51.60083 l 48.4299,48.14163 c -36.4736,4.8101 -47.6503,17.8971 -52.4657,54.0512 z"
       id="path3-1-5"
       sodipodi:nodetypes="ccccc" />
  </g>
</svg>
